<svg class="svg-preview" id="s2tex_0" style="vertical-align:-52.125pt; opacity: 1" xmlns="http://www.w3.org/2000/svg" xmlns:xlink="http://www.w3.org/1999/xlink" width="148" height="139" viewBox="1876.804278 1512.510957 88.468244 83.088418">
<defs>
<path id="s12g2-120" d="m3.36538-2.349191c-.209215 .059776-.257036 .233126-.257036 .32279c0 .191283 .155417 .233126 .239103 .233126c.17335 0 .3467-.143462 .3467-.376588c0-.32279-.352677-.466252-.657534-.466252c-.394521 0-.633624 .304857-.699377 .418431c-.077709-.14944-.304857-.418431-.753176-.418431c-.687422 0-1.093898 .711333-1.093898 .920548c0 .029888 .02391 .083686 .107597 .083686s.101619-.035866 .119552-.089664c.14944-.484184 .555915-.71731 .848817-.71731s.382565 .191283 .382565 .388543c0 .071731 0 .125529-.047821 .310834c-.137484 .555915-.268991 1.099875-.298879 1.171606c-.089664 .227148-.304857 .430386-.555915 .430386c-.035866 0-.203238 0-.340722-.089664c.233126-.077709 .257036-.274969 .257036-.32279c0-.155417-.119552-.233126-.239103-.233126c-.167372 0-.3467 .131507-.3467 .376588c0 .340722 .376588 .466252 .657534 .466252c.340722 0 .585803-.233126 .699377-.418431c.119552 .251059 .406476 .418431 .747198 .418431c.705355 0 1.099875-.723288 1.099875-.920548c0-.011955-.005978-.083686-.113574-.083686c-.083686 0-.095641 .041843-.113574 .095641c-.17335 .52005-.597758 .711333-.848817 .711333c-.227148 0-.388543-.131507-.388543-.382565c0-.113574 .029888-.245081 .083686-.454296l.191283-.777086c.059776-.233126 .089664-.340722 .215193-.484184c.083686-.089664 .227148-.203238 .418431-.203238c.029888 0 .209215 0 .340722 .089664z"></path>
<path id="s12g1-82" d="m4.418181-6.850907c2.094545 0 2.639999 .512727 2.639999 1.232727c0 .665454-.523636 1.974545-2.323636 2.039999c-.534545 .021818-.905454 .403636-.905454 .523636c0 .065455 .043636 .065455 .054545 .065455c.458182 .076364 .676363 .294545 1.243636 1.581818c.501818 1.145454 .785454 1.647272 1.429091 1.647272c1.32 0 2.574545-1.341818 2.574545-1.581818c0-.076364-.087273-.076364-.12-.076364c-.130909 0-.556363 .152727-.785454 .469091c-.174545 .250909-.414545 .589091-.949091 .589091c-.556363 0-.894545-.774545-1.265454-1.625454c-.229091-.545454-.425454-.949091-.676363-1.243636c1.581818-.578182 2.650908-1.723636 2.650908-2.858181c0-1.363636-1.832727-1.363636-3.479999-1.363636c-1.090909 0-1.701818 0-2.618181 .392727c-1.461818 .643636-1.658181 1.54909-1.658181 1.636363c0 .065455 .043636 .087273 .109091 .087273c.174545 0 .425454-.152727 .512727-.207273c.229091-.152727 .261818-.218182 .327273-.425454c.152727-.436364 .458182-.818182 1.832727-.883636c-.054545 .665454-.152727 1.68-.523636 3.272726c-.294545 1.221818-.698182 2.421818-1.178181 3.58909c-.054545 .12-.054545 .141818-.054545 .152727c0 .076364 .087273 .076364 .109091 .076364c.218182 0 .676363-.261818 .796363-.469091c.021818-.054545 1.407272-3.130908 1.745454-6.621816h.512727z"></path>
<path id="s12g5-50" d="m2.247572-1.625903c.127522-.119552 .462267-.382565 .589788-.494147c.494147-.454296 .964384-.892653 .964384-1.617933c0-.948443-.797011-1.562142-1.793275-1.562142c-.956413 0-1.586052 .72528-1.586052 1.43462c0 .390535 .310834 .446326 .422416 .446326c.167372 0 .414446-.119552 .414446-.422416c0-.414446-.398506-.414446-.494147-.414446c.231133-.581818 .765131-.781071 1.155666-.781071c.74122 0 1.123786 .629639 1.123786 1.299128c0 .828892-.581818 1.43462-1.522291 2.399004l-1.004234 1.036115c-.095641 .087671-.095641 .103611-.095641 .302864h3.148194l.231133-1.42665h-.247073c-.02391 .159402-.087671 .557908-.183313 .70934c-.047821 .063761-.653549 .063761-.781071 .063761h-1.41868l1.075965-.972354z"></path>
<path id="s12g5-97" d="m3.347447-2.375093c0-.781071-.757161-1.179577-1.482441-1.179577c-.661519 0-1.251308 .255044-1.251308 .781071c0 .239103 .167372 .382565 .374595 .382565c.223163 0 .374595-.159402 .374595-.374595c0-.191283-.119552-.326775-.294894-.366625c.294894-.199253 .72528-.199253 .781071-.199253c.446326 0 .892653 .310834 .892653 .964384v.247073c-.462267 .02391-.996264 .047821-1.554172 .278954c-.70137 .302864-.836862 .765131-.836862 1.028144c0 .68543 .804981 .892653 1.354919 .892653c.581818 0 .940473-.326775 1.115816-.645579c.039851 .302864 .247073 .605729 .597758 .605729c.079701 0 .757161-.03188 .757161-.757161v-.438356h-.247073v.438356c0 .326775-.119552 .454296-.286924 .454296c-.294894 0-.294894-.366625-.294894-.454296v-1.657783zm-.605729 1.251308c0 .773101-.653549 .980324-.972354 .980324c-.414446 0-.765131-.278954-.765131-.661519c0-.526027 .494147-1.067995 1.737484-1.107846v.789041z"></path>
<path id="s12g5-108" d="m1.522291-5.531258l-1.187547 .087671v.263014c.541968 0 .605729 .055791 .605729 .446326v4.112578c0 .358655-.095641 .358655-.605729 .358655v.263014c.310834-.02391 .757161-.02391 .892653-.02391c.159402 0 .589788 0 .900623 .02391v-.263014c-.510087 0-.605729 0-.605729-.358655v-4.909589z"></path>
<path id="s12g5-118" d="m3.53076-2.614197c.191283-.446326 .462267-.549938 .757161-.557908v-.263014c-.278954 .02391-.294894 .02391-.621669 .02391c-.071731 0-.446326 0-.6934-.02391v.263014c.278954 .01594 .350685 .191283 .350685 .326775c0 .079701-.01594 .119552-.047821 .191283l-.860772 2.008468l-.940473-2.1599c-.047821-.103611-.047821-.151432-.047821-.167372c0-.199253 .286924-.199253 .422416-.199253v-.263014c-.342715 .02391-.71731 .02391-.868742 .02391c-.167372 0-.549938 0-.804981-.02391v.263014c.486177 0 .526027 .047821 .645579 .318804l1.195517 2.757659c.055791 .119552 .103611 .175342 .215193 .175342s.167372-.063761 .207223-.159402l1.091905-2.534496z"></path>
<path id="s12g4-70" d="m3.305454-3.545454h1.058182c.818182 0 .905454 .174545 .905454 .490909c0 .076364 0 .207273-.076364 .534545c-.021818 .054545-.032727 .098182-.032727 .12c0 .087273 .065455 .130909 .130909 .130909c.109091 0 .109091-.032727 .163636-.229091l.6-2.367272c.032727-.12 .032727-.141818 .032727-.174545c0-.021818-.021818-.12-.130909-.12s-.12 .054545-.163636 .229091c-.229091 .850909-.48 1.047272-1.407272 1.047272h-.992727l.698182-2.770908c.098182-.381818 .109091-.425454 .589091-.425454h1.44c1.341818 0 1.592727 .36 1.592727 1.2c0 .250909 0 .294545-.032727 .589091c-.021818 .141818-.021818 .163636-.021818 .196364c0 .054545 .032727 .130909 .130909 .130909c.12 0 .130909-.065455 .152727-.272727l.218182-1.887272c.032727-.294545-.021818-.294545-.294545-.294545h-5.345453c-.218182 0-.327273 0-.327273 .218182c0 .12 .098182 .12 .305454 .12c.403636 0 .709091 0 .709091 .196364c0 .043636 0 .065455-.054545 .261818l-1.44 5.770907c-.109091 .425454-.130909 .512727-.992727 .512727c-.185454 0-.305454 0-.305454 .207273c0 .130909 .130909 .130909 .163636 .130909c.316364 0 1.123636-.032727 1.44-.032727c.36 0 1.265454 .032727 1.625454 .032727c.098182 0 .229091 0 .229091-.207273c0-.087273-.065455-.109091-.065455-.12c-.032727-.010909-.054545-.010909-.305454-.010909c-.24 0-.294545 0-.567273-.021818c-.316364-.032727-.349091-.076364-.349091-.218182c0-.021818 0-.087273 .043636-.250909l.676363-2.716363z"></path>
<path id="s12g3-39" d="m2.279452 .071731c.087671 .00797 .183313 .00797 .270984 .00797c1.40274 0 2.669988-1.219427 2.669988-2.454795c0-.581818-.318804-1.139726-.996264-1.139726c-.565878 0-1.012204 .390535-1.338979 .908593c-.350685 .565878-.510087 1.075965-.836862 2.11208c-.868742-.127522-1.3868-.541968-1.3868-1.123786c0-.175342 .167372-1.044085 .645579-1.570112c.095641-.103611 .095641-.119552 .095641-.151432c0-.00797 0-.095641-.119552-.095641c-.278954 0-.876712 1.195517-.876712 1.896887c0 .597758 .350685 1.267248 1.474471 1.546202l-.239103 .749191c-.151432 .486177-.215193 .669489-.215193 .72528c0 .191283 .175342 .247073 .263014 .247073c.063761 0 .286924-.03188 .350685-.310834c.055791-.278954 .183313-.996264 .239103-1.346949zm.103611-.526027c.151432-.916563 .231133-1.378829 .68543-1.936737c.374595-.462267 .765131-.597758 1.075965-.597758c.494147 0 .804981 .342715 .804981 .781071c0 .836862-1.012204 1.761395-2.319303 1.761395c-.071731 0-.175342 0-.247073-.00797z"></path>
<path id="s12g3-110" d="m1.594022-1.307098c.02391-.119552 .103611-.422416 .127522-.541968c.111582-.430386 .111582-.438356 .294894-.70137c.263014-.390535 .637609-.74122 1.171606-.74122c.286924 0 .454296 .167372 .454296 .541968c0 .438356-.334745 1.346949-.486177 1.737484c-.103611 .263014-.103611 .310834-.103611 .414446c0 .454296 .374595 .67746 .71731 .67746c.781071 0 1.107846-1.115816 1.107846-1.219427c0-.079701-.063761-.103611-.119552-.103611c-.095641 0-.111582 .055791-.135492 .135492c-.191283 .653549-.526027 .964384-.828892 .964384c-.127522 0-.191283-.079701-.191283-.263014s.063761-.358655 .143462-.557908c.119552-.302864 .470237-1.219427 .470237-1.665753c0-.597758-.414446-.884682-.988294-.884682c-.645579 0-1.060025 .390535-1.291158 .6934c-.055791-.438356-.406476-.6934-.812951-.6934c-.286924 0-.486177 .183313-.613699 .430386c-.191283 .374595-.270984 .773101-.270984 .789041c0 .071731 .055791 .103611 .119552 .103611c.103611 0 .111582-.03188 .167372-.239103c.095641-.390535 .239103-.860772 .573848-.860772c.207223 0 .255044 .199253 .255044 .374595c0 .143462-.039851 .294894-.103611 .557908c-.01594 .063761-.135492 .533998-.167372 .645579l-.294894 1.195517c-.03188 .119552-.079701 .318804-.079701 .350685c0 .183313 .151432 .247073 .255044 .247073c.143462 0 .263014-.095641 .318804-.191283c.02391-.047821 .087671-.318804 .127522-.486177l.183313-.70934z"></path>
<path id="s12g0-66" d="m7.003634-7.723634c-.763636 0-1.658181 .207273-2.585454 .676363c-.796363 .403636-1.570909 .992727-2.039999 1.647272c-.370909 .523636-.6 1.058182-.6 1.505454c0 .076364 .010909 .141818 .021818 .207273c.076364 .469091 .447273 .752727 1.036363 .752727c.381818 0 .84-.12 1.287272-.349091c.414545-.218182 .796363-.523636 1.036363-.861818c.436364-.610909 .610909-1.189091 .610909-1.690909c0-.098182-.010909-.196364-.021818-.294545c0-.054545-.054545-.087273-.098182-.087273c-.032727 .010909-.065455 .021818-.098182 .043636c-.032727 .010909-.054545 .043636-.054545 .076364v.087273c0 .458182-.436364 1.090909-.905454 1.756363c-.196364 .283636-.447273 .567273-.774545 .774545c-.338182 .207273-.676363 .305454-.938182 .305454c-.490909 0-.763636-.229091-.807273-.578182c-.010909-.043636-.010909-.087273-.010909-.130909c0-.392727 .218182-.883636 .589091-1.407272c.425454-.610909 1.134545-1.178181 1.898181-1.56c.861818-.436364 1.712727-.632727 2.410908-.632727c.818182 0 1.516363 .12 2.007272 .425454c-1.778181 1.309091-3.032726 3.087272-4.18909 4.712726c-.796363 1.134545-1.952727 2.258181-2.86909 2.258181c-.752727 0-1.309091-.196364-1.309091-.632727c0-.098182 .032727-.196364 .087273-.316364c.065455 .109091 .185454 .163636 .316364 .163636c.283636 0 .610909-.218182 .610909-.425454c0-.272727-.163636-.370909-.36-.370909c-.229091 0-.490909 .130909-.621818 .316364c-.185454 .261818-.261818 .48-.261818 .676363c0 .567273 .698182 .829091 1.494545 .829091c1.254545 0 2.956363-1.123636 3.850908-2.38909c.24-.338182 .490909-.698182 .763636-1.069091c.152727 .054545 .327273 .065455 .501818 .065455c.392727 0 .861818-.152727 1.32-.403636c.174545 .098182 .294545 .250909 .36 .436364c.021818 .076364 .043636 .163636 .043636 .261818c0 .370909-.196364 .861818-.556363 1.363636c-.261818 .36-.556363 .730909-.96 1.025454c-.349091 .250909-.72 .403636-1.003636 .403636c-.36 0-.589091-.130909-.643636-.36c-.010909-.043636-.021818-.098182-.021818-.152727c0-.218182 .109091-.501818 .327273-.807273c.141818-.207273 .403636-.381818 .665454-.501818c.338182-.141818 .654545-.196364 .927272-.196364c.032727 0 .054545-.010909 .076364-.032727l.043636-.065455c.010909-.010909 .010909-.032727 .010909-.054545c0-.043636-.043636-.087273-.087273-.087273c-.316364 0-.676363 .065455-1.058182 .24c-.294545 .130909-.610909 .338182-.785454 .589091c-.229091 .327273-.36 .665454-.36 .949091c0 .076364 0 .141818 .021818 .207273c.098182 .338182 .414545 .512727 .84 .512727c.403636 0 .905454-.174545 1.374545-.458182c.48-.294545 .905454-.698182 1.2-1.101818c.327273-.469091 .501818-.927272 .501818-1.32c0-.185454-.043636-.370909-.12-.523636c-.098182-.218182-.272727-.392727-.490909-.523636c.447273-.305454 .84-.676363 1.123636-1.069091c.272727-.392727 .392727-.752727 .392727-1.069091c0-.370909-.152727-.687273-.403636-.938182c-.054545-.054545-.109091-.109091-.174545-.163636c.141818-.130909 .283636-.229091 .403636-.305454c.021818-.021818 .043636-.043636 .043636-.076364l-.021818-.109091c-.010909-.043636-.054545-.065455-.098182-.065455c-.010909 0-.032727 0-.043636 .010909l-.567273 .36c-.589091-.338182-1.385454-.458182-2.258181-.458182zm.458182 3.632726c-.141818 0-.283636 .010909-.436364 .032727c.774545-1.058182 1.581818-2.094545 2.236363-2.759999c.185454 .185454 .294545 .436364 .294545 .730909c0 .305454-.12 .665454-.403636 1.069091c-.250909 .36-.545454 .72-.938182 1.025454c-.218182-.065455-.48-.098182-.752727-.098182zm-.469091 .48c.087273-.130909 .130909-.174545 .130909-.174545c.098182-.054545 .196364-.065455 .294545-.065455c.185454 0 .36 .021818 .512727 .054545c-.316364 .196364-.654545 .316364-.905454 .316364c-.054545 0-.098182 0-.12-.010909c.021818-.032727 .054545-.065455 .087273-.12z"></path>
</defs>
<g id="s12page1">
<!--start 1872.019782 1492.700226 -->
<g transform="matrix(1 0 0 1 -56.99 39.71)">
<use x="1933.703324" y="1480.636791" xlink:href="#s12g0-66"></use>
<use x="1943.604136" y="1482.273141" xlink:href="#s12g3-110"></use>
</g>
<g transform="matrix(1 0 0 1 -55.09 39.71)">
<use x="2009.103162" y="1517.348958" xlink:href="#s12g4-70"></use>
<use x="2016.118326" y="1518.985308" xlink:href="#s12g5-50"></use>
</g>
<g transform="matrix(1 0 0 1 -56.66 39.71)">
<use x="1933.703324" y="1554.061126" xlink:href="#s12g1-82"></use>
<use x="1942.948816" y="1555.697476" xlink:href="#s12g3-110"></use>
</g>
<path d="m1897.1524 1523.7851l51.5742 25.11719" stroke="#000" fill="none" stroke-width=".43636" stroke-miterlimit="10"></path>
<path d="m1948.025746 1545.653365c-.316457 1.593667 .1915 2.664018 .894537 3.347587c-.972696-.132779-2.125022 .128952-3.187521 1.359298" stroke="#000" fill="none" stroke-width=".43636" stroke-miterlimit="10" stroke-linecap="round" stroke-linejoin="round"></path>
<g transform="matrix(1 0 0 1 4.46 -21.18)">
<use x="1921.237802" y="1554.061126" xlink:href="#s12g5-118"></use>
<use x="1925.236753" y="1554.061126" xlink:href="#s12g5-97"></use>
<use x="1929.470935" y="1554.061126" xlink:href="#s12g5-108"></use>
<use x="1931.823259" y="1555.05739" xlink:href="#s12g2-120"></use>
</g>
<path d="m1884.4883 1582.1249v-55.5117" stroke="#000" fill="none" stroke-width=".43636" stroke-miterlimit="10"></path>
<path d="m1881.87013 1528.66026c1.57422-.41406 2.312497-1.33984 2.621091-2.269528c.304687 .929688 1.046879 1.855468 2.617189 2.269528" stroke="#000" fill="none" stroke-width=".43636" stroke-miterlimit="10" stroke-linecap="round" stroke-linejoin="round"></path>
<g transform="matrix(1 0 0 1 -44.84 1.03)">
<use x="1921.237802" y="1554.061126" xlink:href="#s12g3-39"></use>
</g>
<path d="m1896.8242 1585.039l51.9024-25.27734" stroke="#000" fill="none" stroke-width=".43636" stroke-miterlimit="10"></path>
<path d="m1945.732805 1558.308171c1.062511 1.234412 2.214838 1.496139 3.18748 1.363251c-.703051 .679639-1.210994 1.753925-.894485 3.3477" stroke="#000" fill="none" stroke-width=".43636" stroke-miterlimit="10" stroke-linecap="round" stroke-linejoin="round"></path>
<g transform="matrix(1 0 0 1 4.3 26.35)">
<use x="1921.237802" y="1554.061126" xlink:href="#s12g5-118"></use>
<use x="1925.236753" y="1554.061126" xlink:href="#s12g5-97"></use>
<use x="1929.470935" y="1554.061126" xlink:href="#s12g5-108"></use>
<use x="1931.823259" y="1555.05739" xlink:href="#s12g2-120"></use>
</g>
</g>
<script type="text/ecmascript">if(window.parent.postMessage)window.parent.postMessage("52.125|111|104.25|"+window.location,"*");</script>
</svg>